<?xml version="1.0" standalone="no"?><!DOCTYPE svg PUBLIC "-//W3C//DTD SVG 1.1//EN" "http://www.w3.org/Graphics/SVG/1.1/DTD/svg11.dtd"><svg t="1762321574947" class="icon" viewBox="0 0 1024 1024" version="1.1" xmlns="http://www.w3.org/2000/svg" p-id="13078" xmlns:xlink="http://www.w3.org/1999/xlink" width="200" height="200"><path d="M621.568 927.744c-35.84 9.216-72.704 14.336-109.568 14.336-77.312 0-150.016-20.48-212.48-56.32 52.736-11.264 112.128-39.424 172.032-78.336 11.776 6.656 25.6 10.752 40.448 10.752 14.848 0 28.672-4.096 40.448-10.752 0.512 0 0.512 0.512 1.024 0.512-7.168-23.552-10.752-48.128-10.752-73.728 0-23.552 3.072-46.08 9.216-67.584-11.776-6.656-25.088-10.24-39.424-10.24-15.36 0-30.208 4.608-42.496 12.288-19.456-16.896-39.424-35.328-58.88-54.784-33.792-33.792-64-68.096-90.112-101.376 26.112-33.28 56.32-67.584 90.112-101.376 25.088-25.088 50.688-48.128 75.776-69.632 7.168 2.048 14.848 3.072 22.528 3.072 9.216 0 18.432-1.536 26.624-4.608 25.6 21.504 51.712 45.056 77.312 70.656 29.696 29.696 56.32 59.392 79.872 89.088 32.768-14.848 69.12-23.552 107.52-23.552h3.584c39.936-61.952 69.12-122.88 81.408-177.152 35.84 62.976 56.32 135.168 56.32 212.48 0 16.896 13.824 30.72 30.72 30.72s30.72-13.824 30.72-30.72c0-132.608-52.736-252.928-138.24-341.504-1.536-2.048-3.584-4.096-5.632-6.144-2.048-2.048-4.096-3.584-6.144-5.632C764.928 73.216 644.608 20.48 512 20.48 379.392 20.48 259.072 73.216 170.496 158.72c-2.048 1.536-4.096 3.584-6.144 5.632-1.536 1.536-3.072 3.584-5.12 5.12C73.728 258.56 20.48 378.88 20.48 512c0 133.12 53.248 253.44 139.264 342.016 1.536 2.048 3.072 3.584 5.12 5.12 1.024 1.024 2.56 2.56 4.096 3.584 88.576 87.04 209.92 140.288 343.552 140.288 42.496 0 84.48-5.632 125.44-15.872 16.384-4.096 26.112-20.992 22.016-37.376-5.12-16.384-22.016-26.112-38.4-22.016z m-254.464-270.848c20.992 20.992 43.52 41.984 66.048 61.44-1.536 6.144-2.56 12.288-2.56 18.944 0 7.68 1.024 14.848 3.072 21.504-102.4 64.512-188.416 87.04-222.72 60.416l-6.656-6.656c-28.672-36.864 0.512-135.168 78.336-249.344 26.624 32.256 54.784 64 84.48 93.696z m0-289.792c-29.696 29.696-57.856 61.44-84.48 93.696C204.8 346.624 176.128 248.32 204.8 211.456l6.656-6.656c9.216-7.168 22.528-10.752 39.424-10.752 42.496 0 105.984 23.552 177.664 67.584v1.536c0 13.824 3.584 27.136 9.728 38.4-24.576 20.992-48.64 43.008-71.168 65.536z m373.76 93.696c-26.112-32.256-54.784-64-84.48-93.696-24.064-24.064-49.152-47.104-74.752-68.608 5.12-10.24 7.68-21.504 8.192-33.28 74.24-46.592 139.776-71.168 183.296-71.168 16.384 0 29.696 3.584 39.424 10.752l6.656 6.656c28.672 36.864 0 135.168-78.336 249.344z m-16.384-322.56c-48.128 10.752-102.4 34.816-157.184 68.608-14.848-15.36-35.328-24.576-58.368-24.576-21.504 0-41.472 8.704-55.808 22.528-53.76-32.768-106.496-56.32-153.6-66.56 62.976-35.84 135.168-56.32 212.48-56.32 77.312 0 150.016 20.48 212.48 56.32zM138.24 299.52C152.576 363.52 191.488 438.272 243.712 512c-52.736 73.728-91.648 148.48-105.472 212.48-35.84-62.976-56.32-135.168-56.32-212.48 0-77.312 20.48-150.016 56.32-212.48z" fill="#1296db" p-id="13079"></path><path d="M800.768 532.48c-111.616 0-202.24 90.624-202.24 202.24s90.624 202.24 202.24 202.24 202.24-90.624 202.24-202.24-90.624-202.24-202.24-202.24z m0 342.528c-77.312 0-140.8-62.976-140.8-140.8s62.976-140.8 140.8-140.8c77.312 0 140.8 62.976 140.8 140.8s-63.488 140.8-140.8 140.8z" fill="#1296db" p-id="13080"></path><path d="M805.376 730.112m-66.56 0a66.56 66.56 0 1 0 133.12 0 66.56 66.56 0 1 0-133.12 0Z" fill="#1296db" p-id="13081"></path></svg>